<svg xmlns="http://www.w3.org/2000/svg" viewBox="0 0 302 302"><defs><style>.cls-1{fill:#ee4036;}.cls-2{fill:none;stroke:#ee4036;stroke-miterlimit:10;stroke-width:2px;}</style></defs><title>arrow</title><g id="Layer_2" data-name="Layer 2"><g id="pages"><path class="cls-1" d="M225.12,39.43a2.33,2.33,0,0,0-1,.58L203.18,58.62a2.33,2.33,0,0,0-.8,1.74V82.6L198,87a91.07,91.07,0,1,0,3.27,3.34l4.36-4.36H228a2.33,2.33,0,0,0,1.74-.8l18.61-20.93a2.33,2.33,0,0,0-1.74-3.85H228V41.76a2.33,2.33,0,0,0-2.83-2.33Zm-1.82,7.49V62.69A2.33,2.33,0,0,0,225.63,65h15.7L226.87,81.3H207V61.38ZM137.26,67.34a83.53,83.53,0,0,1,57.49,22.89L175,110a54.51,54.51,0,1,0,3.34,3.27L198,93.58a83.65,83.65,0,1,1-60.76-26.24Zm0,32.56a51.09,51.09,0,0,1,34.45,13.3l-18.17,18.17a25.79,25.79,0,1,0,3.34,3.34L175,116.54A51.19,51.19,0,1,1,137.26,99.9Zm0,30.23a20.79,20.79,0,0,1,13,4.58L135.59,149.4a2.34,2.34,0,0,0,3.34,3.27L153.61,138a20.94,20.94,0,1,1-16.35-7.85Z"/><rect class="cls-2" x="1" y="1" width="300" height="300"/></g></g></svg>