<svg xmlns="http://www.w3.org/2000/svg" viewBox="0 0 199.84 22"><defs><style>.cls-1{fill:#4a62ac;}.cls-10,.cls-2{isolation:isolate;}.cls-2{font-size:11.85px;font-family:Helvetica-Bold, Helvetica Bold;font-weight:700;}.cls-2,.cls-5{fill:#fff;}.cls-3{letter-spacing:-0.01em;}.cls-4{letter-spacing:0em;}.cls-6{fill:#f1f1f2;stroke:#808184;stroke-miterlimit:10;}.cls-7{fill:#da4536;}.cls-8{fill:#404041;}.cls-9{fill:#5fa8dc;}</style></defs><title>social-share</title><g id="Layer_2" data-name="Layer 2"><g id="pages"><rect class="cls-1" y="0.5" width="60.31" height="21"/><text class="cls-2" transform="translate(21.54 15.3)">Sha<tspan class="cls-3" x="18.12" y="0">r</tspan><tspan class="cls-4" x="21.88" y="0">e</tspan></text><path class="cls-5" d="M17.5,15.25A2.76,2.76,0,0,1,14.75,18H12.92V12.24h1.94l.27-2.1H12.92V8.79A1.32,1.32,0,0,1,13.19,8a1.32,1.32,0,0,1,.92-.27h1.24v-2c-.59-.05-1.18-.11-1.72-.11a2.81,2.81,0,0,0-2,.75,2.78,2.78,0,0,0-.75,2.15v1.56H8.72v2.1h2.1v5.76H5.65a2.36,2.36,0,0,1-1.88-.75A2.64,2.64,0,0,1,3,15.25v-9a2.64,2.64,0,0,1,.81-1.94,2.64,2.64,0,0,1,1.94-.81h9.1a2.61,2.61,0,0,1,1.88.81,2.64,2.64,0,0,1,.81,1.94v9Z"/><path class="cls-6" d="M124.38,19.42a2,2,0,0,1-1.91,2.08H68.75a2,2,0,0,1-1.91-2.08V2.58A2,2,0,0,1,68.75.5h53.72a2,2,0,0,1,1.91,2.08Z"/><polygon class="cls-7" points="88.81 8.64 87.1 8.64 87.1 10.36 85.38 10.36 85.38 12.08 87.1 12.08 87.1 13.8 88.81 13.8 88.81 12.08 90.53 12.08 90.53 10.36 88.81 10.36 88.81 8.64"/><path class="cls-7" d="M77.08,10.36v2.4h3.38a3.18,3.18,0,0,1-3.38,2.52,3.75,3.75,0,0,1-3.66-3.78,3.71,3.71,0,0,1,3.66-3.78,3.32,3.32,0,0,1,2.4.92l1.77-1.77a6.24,6.24,0,1,0-4.18,10.87,5.75,5.75,0,0,0,6-6.07A9.39,9.39,0,0,0,83,10.36Z"/><path class="cls-8" d="M94.74,12.82l1.39-.21a1,1,0,0,0,.36.61,1.21,1.21,0,0,0,.76.21,1.37,1.37,0,0,0,.81-.2.44.44,0,0,0,.18-.37.36.36,0,0,0-.1-.26,1.1,1.1,0,0,0-.46-.18,7.44,7.44,0,0,1-2.12-.67,1.34,1.34,0,0,1-.62-1.17,1.45,1.45,0,0,1,.54-1.14A2.5,2.5,0,0,1,97.13,9a2.9,2.9,0,0,1,1.59.35,1.78,1.78,0,0,1,.72,1l-1.3.24a.81.81,0,0,0-.32-.47,1.16,1.16,0,0,0-.67-.16,1.5,1.5,0,0,0-.78.15.33.33,0,0,0-.16.28.31.31,0,0,0,.14.25,5.18,5.18,0,0,0,1.29.39,3.84,3.84,0,0,1,1.54.61,1.28,1.28,0,0,1,.43,1,1.58,1.58,0,0,1-.6,1.23,2.65,2.65,0,0,1-1.77.52A2.91,2.91,0,0,1,95.55,14,2,2,0,0,1,94.74,12.82Z"/><path class="cls-8" d="M102.2,7.11V9.76a2.07,2.07,0,0,1,2.46-.6,1.4,1.4,0,0,1,.58.45,1.64,1.64,0,0,1,.27.61,5.45,5.45,0,0,1,.07,1v3.06h-1.38V11.56a4.09,4.09,0,0,0-.08-1,.68.68,0,0,0-.28-.35.89.89,0,0,0-.5-.13,1.14,1.14,0,0,0-.61.17,1,1,0,0,0-.4.5,3,3,0,0,0-.13,1v2.61h-1.38V7.11Z"/><path class="cls-8" d="M108,10.69l-1.25-.23a2,2,0,0,1,.73-1.12A2.66,2.66,0,0,1,109,9a3.3,3.3,0,0,1,1.38.22,1.37,1.37,0,0,1,.64.56A2.85,2.85,0,0,1,111.2,11V12.6a5.59,5.59,0,0,0,.07,1,3,3,0,0,0,.25.7h-1.37q-.05-.14-.13-.41l0-.16a2.49,2.49,0,0,1-.76.52,2.17,2.17,0,0,1-.86.17,1.78,1.78,0,0,1-1.27-.44,1.45,1.45,0,0,1-.46-1.11,1.48,1.48,0,0,1,.21-.79,1.38,1.38,0,0,1,.59-.53,4.62,4.62,0,0,1,1.1-.32,7.51,7.51,0,0,0,1.34-.34v-.14a.72.72,0,0,0-.2-.57,1.18,1.18,0,0,0-.74-.17,1,1,0,0,0-.57.15A1,1,0,0,0,108,10.69Zm1.85,1.12A8.6,8.6,0,0,1,109,12a2.53,2.53,0,0,0-.75.24.58.58,0,0,0-.27.49.68.68,0,0,0,.22.5.75.75,0,0,0,.55.21,1.2,1.2,0,0,0,.71-.25.87.87,0,0,0,.33-.46,2.73,2.73,0,0,0,.05-.67Z"/><path class="cls-8" d="M113.89,14.31h-1.38V9.09h1.28v.74a2.23,2.23,0,0,1,.59-.69A1.09,1.09,0,0,1,115,9a1.75,1.75,0,0,1,.91.26l-.43,1.2a1.21,1.21,0,0,0-.65-.23.77.77,0,0,0-.49.16A1.09,1.09,0,0,0,114,11a8.2,8.2,0,0,0-.12,1.75Z"/><path class="cls-8" d="M119.5,12.65l1.38.23A2.26,2.26,0,0,1,120,14a2.46,2.46,0,0,1-1.43.4,2.33,2.33,0,0,1-2-.89,3,3,0,0,1-.52-1.8,2.88,2.88,0,0,1,.68-2A2.23,2.23,0,0,1,118.47,9a2.32,2.32,0,0,1,1.84.77A3.4,3.4,0,0,1,121,12.1h-3.46a1.4,1.4,0,0,0,.33,1,1,1,0,0,0,.8.34.85.85,0,0,0,.55-.18A1.09,1.09,0,0,0,119.5,12.65Zm.08-1.4a1.33,1.33,0,0,0-.31-.91,1,1,0,0,0-1.46,0,1.27,1.27,0,0,0-.29.89Z"/><path class="cls-9" d="M199.82,20.25a1,1,0,0,1-1.08,1h-67a1,1,0,0,1-1.08-1V1.5a1,1,0,0,1,1.08-1h67a1,1,0,0,1,1.08,1V20.25Z"/><path class="cls-5" d="M148.78,8a2.76,2.76,0,0,1-1.3.3,2.49,2.49,0,0,0,1-1.09,6.08,6.08,0,0,1-1.4.5,2.23,2.23,0,0,0-1.51-.59,2.08,2.08,0,0,0-2.15,2,.81.81,0,0,0,.11.5,7.12,7.12,0,0,1-4.42-2.18,1.54,1.54,0,0,0-.21,1,1.85,1.85,0,0,0,1,1.59,1.62,1.62,0,0,1-1-.3h0a2,2,0,0,0,1.61,1.89,5.23,5.23,0,0,0-.54.1h-.43a2.16,2.16,0,0,0,1.94,1.39,4.36,4.36,0,0,1-2.6.8h-.54a7.1,7.1,0,0,0,3.24.89,5.78,5.78,0,0,0,6-5.56V9A2.62,2.62,0,0,0,148.78,8Z"/><g class="cls-10"><path class="cls-5" d="M160.11,5.82V7.24H157v7.9h-1.89V7.24h-3.06V5.82Z"/><path class="cls-5" d="M159.23,8.53h1.39a.59.59,0,0,1,.33.08.4.4,0,0,1,.18.21l1,3.53c.05.2.1.38.14.57s.08.37.1.54c.05-.19.1-.36.16-.54l.19-.57,1.2-3.55a.4.4,0,0,1,.16-.21.48.48,0,0,1,.3-.08h.77a.55.55,0,0,1,.32.08.47.47,0,0,1,.18.21l1.16,3.55c.06.2.11.39.18.58s.1.37.15.56l.11-.56c0-.19.09-.37.15-.58l1.06-3.53a.42.42,0,0,1,.18-.21.53.53,0,0,1,.3-.08h1.32l-2.33,6.62h-1.39c-.16,0-.26-.09-.33-.28L164.95,11a6.8,6.8,0,0,1-.2-.76,5.94,5.94,0,0,1-.21.78l-1.31,3.81a.35.35,0,0,1-.38.28h-1.34Z"/><path class="cls-5" d="M174.16,8.42a4,4,0,0,1,1.26.2,2.78,2.78,0,0,1,1,.58,2.58,2.58,0,0,1,.64.94,3.36,3.36,0,0,1,.24,1.27.87.87,0,0,1-.09.49.38.38,0,0,1-.33.13h-4.46a2.56,2.56,0,0,0,.2.88,1.87,1.87,0,0,0,.4.61,1.54,1.54,0,0,0,.6.36,2.31,2.31,0,0,0,.77.12,2.77,2.77,0,0,0,.73-.09,3.73,3.73,0,0,0,.53-.2l.4-.2a.75.75,0,0,1,.33-.09.37.37,0,0,1,.33.15l.5.58a2.68,2.68,0,0,1-.64.52,3.84,3.84,0,0,1-.74.34,4.6,4.6,0,0,1-.79.17,6,6,0,0,1-.78,0,4.19,4.19,0,0,1-1.4-.23,3.24,3.24,0,0,1-1.12-.67,3.34,3.34,0,0,1-.76-1.11,4.09,4.09,0,0,1-.28-1.53,3.3,3.3,0,0,1,.24-1.27,3.34,3.34,0,0,1,.68-1,3.18,3.18,0,0,1,1.08-.7A4.22,4.22,0,0,1,174.16,8.42Zm0,1.15A1.67,1.67,0,0,0,173,10a1.84,1.84,0,0,0-.54,1.11h3.26a1.45,1.45,0,0,0-.1-.58,1.24,1.24,0,0,0-.29-.48,1.35,1.35,0,0,0-.48-.32A1.48,1.48,0,0,0,174.19,9.57Z"/><path class="cls-5" d="M181.65,8.42a4,4,0,0,1,1.26.2,2.78,2.78,0,0,1,1,.58,2.58,2.58,0,0,1,.64.94,3.36,3.36,0,0,1,.24,1.27.87.87,0,0,1-.09.49.38.38,0,0,1-.33.13h-4.45a2.56,2.56,0,0,0,.2.88,1.87,1.87,0,0,0,.4.61,1.54,1.54,0,0,0,.6.36,2.31,2.31,0,0,0,.77.12,2.77,2.77,0,0,0,.73-.09,3.73,3.73,0,0,0,.53-.2l.4-.2a.75.75,0,0,1,.33-.09.37.37,0,0,1,.33.15l.5.58a2.68,2.68,0,0,1-.64.52,3.84,3.84,0,0,1-.74.34,4.6,4.6,0,0,1-.79.17,6,6,0,0,1-.78,0,4.19,4.19,0,0,1-1.4-.23,3.24,3.24,0,0,1-1.12-.67,3.34,3.34,0,0,1-.76-1.11,4.09,4.09,0,0,1-.28-1.53,3.3,3.3,0,0,1,.24-1.27,3.34,3.34,0,0,1,.68-1,3.18,3.18,0,0,1,1.08-.7A4.05,4.05,0,0,1,181.65,8.42Zm0,1.15a1.67,1.67,0,0,0-1.18.39,1.84,1.84,0,0,0-.54,1.11h3.26a1.45,1.45,0,0,0-.1-.58,1.24,1.24,0,0,0-.29-.48,1.35,1.35,0,0,0-.48-.32A1.51,1.51,0,0,0,181.69,9.57Z"/><path class="cls-5" d="M188.39,15.25a2,2,0,0,1-1.44-.49,1.77,1.77,0,0,1-.5-1.34V9.72h-.74a.35.35,0,0,1-.24-.08.33.33,0,0,1-.1-.25V8.75l1.16-.17.37-1.81a.33.33,0,0,1,.14-.2.42.42,0,0,1,.25-.07h.89V8.59h1.93V9.72h-1.93v3.59a.66.66,0,0,0,.16.49.61.61,0,0,0,.45.17.8.8,0,0,0,.26,0l.19-.07.14-.07a.26.26,0,0,1,.13,0,.23.23,0,0,1,.13,0,.44.44,0,0,1,.1.1l.52.78a2.73,2.73,0,0,1-.87.44A3.17,3.17,0,0,1,188.39,15.25Z"/></g></g></g></svg>